<?xml version="1.0" encoding="utf-8" standalone="no"?>
<!DOCTYPE svg PUBLIC "-//W3C//DTD SVG 1.1//EN"
  "http://www.w3.org/Graphics/SVG/1.1/DTD/svg11.dtd">
<svg xmlns:xlink="http://www.w3.org/1999/xlink" width="720pt" height="432pt" viewBox="0 0 720 432" xmlns="http://www.w3.org/2000/svg" version="1.1">
 <metadata>
  <rdf:RDF xmlns:dc="http://purl.org/dc/elements/1.1/" xmlns:cc="http://creativecommons.org/ns#" xmlns:rdf="http://www.w3.org/1999/02/22-rdf-syntax-ns#">
   <cc:Work>
    <dc:type rdf:resource="http://purl.org/dc/dcmitype/StillImage"/>
    <dc:date>2024-10-27T20:53:53.559406</dc:date>
    <dc:format>image/svg+xml</dc:format>
    <dc:creator>
     <cc:Agent>
      <dc:title>Matplotlib v3.9.2, https://matplotlib.org/</dc:title>
     </cc:Agent>
    </dc:creator>
   </cc:Work>
  </rdf:RDF>
 </metadata>
 <defs>
  <style type="text/css">*{stroke-linejoin: round; stroke-linecap: butt}</style>
 </defs>
 <g id="figure_1">
  <g id="patch_1">
   <path d="M 0 432 
L 720 432 
L 720 0 
L 0 0 
z
" style="fill: #ffffff"/>
  </g>
  <g id="axes_1">
   <g id="patch_2">
    <path d="M 47.72 390.04 
L 525.64 390.04 
L 525.64 26.88 
L 47.72 26.88 
z
" style="fill: #ffffff"/>
   </g>
   <g id="PolyCollection_1">
    <path d="M 47.72 383.567733 
L 47.72 390.04 
L 77.59 390.04 
L 107.46 390.04 
L 137.33 390.04 
L 167.2 390.04 
L 197.07 390.04 
L 226.94 390.04 
L 256.81 390.04 
L 286.68 390.04 
L 316.55 390.04 
L 346.42 390.04 
L 376.29 390.04 
L 406.16 390.04 
L 436.03 390.04 
L 465.9 390.04 
L 495.77 390.04 
L 525.64 390.04 
L 525.64 376.335492 
L 525.64 376.335492 
L 495.77 375.596926 
L 465.9 384.088654 
L 436.03 381.780189 
L 406.16 381.216452 
L 376.29 379.956965 
L 346.42 378.397769 
L 316.55 379.560922 
L 286.68 382.351061 
L 256.81 384.420474 
L 226.94 386.425664 
L 197.07 380.374415 
L 167.2 380.570653 
L 137.33 390.04 
L 107.46 390.04 
L 77.59 383.888849 
L 47.72 383.567733 
z
" clip-path="url(#p9b219c124e)" style="fill: #1f77b4"/>
   </g>
   <g id="PolyCollection_2">
    <path d="M 47.72 360.101306 
L 47.72 383.567733 
L 77.59 383.888849 
L 107.46 390.04 
L 137.33 390.04 
L 167.2 380.570653 
L 197.07 380.374415 
L 226.94 386.425664 
L 256.81 384.420474 
L 286.68 382.351061 
L 316.55 379.560922 
L 346.42 378.397769 
L 376.29 379.956965 
L 406.16 381.216452 
L 436.03 381.780189 
L 465.9 384.088654 
L 495.77 375.596926 
L 525.64 376.335492 
L 525.64 353.111686 
L 525.64 353.111686 
L 495.77 353.821708 
L 465.9 358.213859 
L 436.03 353.778893 
L 406.16 353.414962 
L 376.29 344.270298 
L 346.42 336.431505 
L 316.55 340.209967 
L 286.68 345.17299 
L 256.81 338.643636 
L 226.94 346.025731 
L 197.07 339.235916 
L 167.2 345.454858 
L 137.33 359.3449 
L 107.46 359.498322 
L 77.59 366.084763 
L 47.72 360.101306 
z
" clip-path="url(#p9b219c124e)" style="fill: #ff7f0e"/>
   </g>
   <g id="PolyCollection_3">
    <path d="M 47.72 358.481455 
L 47.72 360.101306 
L 77.59 366.084763 
L 107.46 359.498322 
L 137.33 359.3449 
L 167.2 345.454858 
L 197.07 339.235916 
L 226.94 346.025731 
L 256.81 338.643636 
L 286.68 345.17299 
L 316.55 340.209967 
L 346.42 336.431505 
L 376.29 344.270298 
L 406.16 353.414962 
L 436.03 353.778893 
L 465.9 358.213859 
L 495.77 353.821708 
L 525.64 353.111686 
L 525.64 349.604388 
L 525.64 349.604388 
L 495.77 350.863875 
L 465.9 355.313113 
L 436.03 351.106496 
L 406.16 350.282299 
L 376.29 337.437668 
L 346.42 322.751973 
L 316.55 333.687749 
L 286.68 340.991349 
L 256.81 332.610227 
L 226.94 339.118174 
L 197.07 331.650448 
L 167.2 342.893068 
L 137.33 358.674125 
L 107.46 359.498322 
L 77.59 366.084763 
L 47.72 358.481455 
z
" clip-path="url(#p9b219c124e)" style="fill: #2ca02c"/>
   </g>
   <g id="PolyCollection_4">
    <path d="M 47.72 354.274838 
L 47.72 358.481455 
L 77.59 366.084763 
L 107.46 359.498322 
L 137.33 358.674125 
L 167.2 342.893068 
L 197.07 331.650448 
L 226.94 339.118174 
L 256.81 332.610227 
L 286.68 340.991349 
L 316.55 333.687749 
L 346.42 322.751973 
L 376.29 337.437668 
L 406.16 350.282299 
L 436.03 351.106496 
L 465.9 355.313113 
L 495.77 350.863875 
L 525.64 349.604388 
L 525.64 344.669909 
L 525.64 344.669909 
L 495.77 345.879445 
L 465.9 349.272568 
L 436.03 348.280677 
L 406.16 347.724077 
L 376.29 334.237214 
L 346.42 319.398097 
L 316.55 328.59628 
L 286.68 335.664395 
L 256.81 327.754243 
L 226.94 332.446102 
L 197.07 327.750675 
L 167.2 338.722131 
L 137.33 354.071465 
L 107.46 356.140878 
L 77.59 364.354306 
L 47.72 354.274838 
z
" clip-path="url(#p9b219c124e)" style="fill: #d62728"/>
   </g>
   <g id="PolyCollection_5">
    <path d="M 47.72 353.707534 
L 47.72 354.274838 
L 77.59 364.354306 
L 107.46 356.140878 
L 137.33 354.071465 
L 167.2 338.722131 
L 197.07 327.750675 
L 226.94 332.446102 
L 256.81 327.754243 
L 286.68 335.664395 
L 316.55 328.59628 
L 346.42 319.398097 
L 376.29 334.237214 
L 406.16 347.724077 
L 436.03 348.280677 
L 465.9 349.272568 
L 495.77 345.879445 
L 525.64 344.669909 
L 525.64 343.859983 
L 525.64 343.859983 
L 495.77 345.083791 
L 465.9 348.491187 
L 436.03 347.684829 
L 406.16 347.060437 
L 376.29 333.623526 
L 346.42 318.709482 
L 316.55 327.839874 
L 286.68 335.211265 
L 256.81 327.09774 
L 226.94 331.621904 
L 197.07 327.09774 
L 167.2 338.408151 
L 137.33 353.935883 
L 107.46 355.905393 
L 77.59 364.111685 
L 47.72 353.707534 
z
" clip-path="url(#p9b219c124e)" style="fill: #9467bd"/>
   </g>
   <g id="PolyCollection_6">
    <path d="M 47.72 350.796084 
L 47.72 353.707534 
L 77.59 364.111685 
L 107.46 355.905393 
L 137.33 353.935883 
L 167.2 338.408151 
L 197.07 327.09774 
L 226.94 331.621904 
L 256.81 327.09774 
L 286.68 335.211265 
L 316.55 327.839874 
L 346.42 318.709482 
L 376.29 333.623526 
L 406.16 347.060437 
L 436.03 347.684829 
L 465.9 348.491187 
L 495.77 345.083791 
L 525.64 343.859983 
L 525.64 334.793815 
L 525.64 334.793815 
L 495.77 336.081846 
L 465.9 339.917395 
L 436.03 338.222618 
L 406.16 338.490214 
L 376.29 327.293977 
L 346.42 314.096119 
L 316.55 319.983241 
L 286.68 331.354308 
L 256.81 322.009839 
L 226.94 329.438317 
L 197.07 323.590442 
L 167.2 336.046166 
L 137.33 352.012756 
L 107.46 354.574546 
L 77.59 361.200235 
L 47.72 350.796084 
z
" clip-path="url(#p9b219c124e)" style="fill: #8c564b"/>
   </g>
   <g id="PolyCollection_7">
    <path d="M 47.72 290.915128 
L 47.72 350.796084 
L 77.59 361.200235 
L 107.46 354.574546 
L 137.33 352.012756 
L 167.2 336.046166 
L 197.07 323.590442 
L 226.94 329.438317 
L 256.81 322.009839 
L 286.68 331.354308 
L 316.55 319.983241 
L 346.42 314.096119 
L 376.29 327.293977 
L 406.16 338.490214 
L 436.03 338.222618 
L 465.9 339.917395 
L 495.77 336.081846 
L 525.64 334.793815 
L 525.64 119.885297 
L 525.64 119.885297 
L 495.77 116.317344 
L 465.9 130.999471 
L 436.03 82.200577 
L 406.16 162.911244 
L 376.29 179.712735 
L 346.42 150.669597 
L 316.55 163.978061 
L 286.68 186.463302 
L 256.81 160.963141 
L 226.94 213.372804 
L 197.07 188.657593 
L 167.2 221.707542 
L 137.33 269.475298 
L 107.46 257.907994 
L 77.59 269.179158 
L 47.72 290.915128 
z
" clip-path="url(#p9b219c124e)" style="fill: #e377c2"/>
   </g>
   <g id="PolyCollection_8">
    <path d="M 47.72 289.759111 
L 47.72 290.915128 
L 77.59 269.179158 
L 107.46 257.907994 
L 137.33 269.475298 
L 167.2 221.707542 
L 197.07 188.657593 
L 226.94 213.372804 
L 256.81 160.963141 
L 286.68 186.463302 
L 316.55 163.978061 
L 346.42 150.669597 
L 376.29 179.712735 
L 406.16 162.911244 
L 436.03 82.200577 
L 465.9 130.999471 
L 495.77 116.317344 
L 525.64 119.885297 
L 525.64 118.615106 
L 525.64 118.615106 
L 495.77 115.050721 
L 465.9 129.954061 
L 436.03 79.817184 
L 406.16 161.583965 
L 376.29 178.599533 
L 346.42 149.092561 
L 316.55 162.062071 
L 286.68 184.693597 
L 256.81 155.161649 
L 226.94 208.327718 
L 197.07 186.416918 
L 167.2 220.276793 
L 137.33 268.775979 
L 107.46 257.907994 
L 77.59 267.666346 
L 47.72 289.759111 
z
" clip-path="url(#p9b219c124e)" style="fill: #7f7f7f"/>
   </g>
   <g id="PolyCollection_9">
    <path d="M 47.72 253.829824 
L 47.72 289.759111 
L 77.59 267.666346 
L 107.46 257.907994 
L 137.33 268.775979 
L 167.2 220.276793 
L 197.07 186.416918 
L 226.94 208.327718 
L 256.81 155.161649 
L 286.68 184.693597 
L 316.55 162.062071 
L 346.42 149.092561 
L 376.29 178.599533 
L 406.16 161.583965 
L 436.03 79.817184 
L 465.9 129.954061 
L 495.77 115.050721 
L 525.64 118.615106 
L 525.64 86.72831 
L 525.64 86.72831 
L 495.77 81.49769 
L 465.9 91.4166 
L 436.03 45.414981 
L 406.16 121.069858 
L 376.29 120.017312 
L 346.42 96.358215 
L 316.55 96.447414 
L 286.68 116.716955 
L 256.81 95.080888 
L 226.94 166.636187 
L 197.07 134.838589 
L 167.2 169.965087 
L 137.33 226.642021 
L 107.46 211.5139 
L 77.59 222.999141 
L 47.72 253.829824 
z
" clip-path="url(#p9b219c124e)" style="fill: #bcbd22"/>
   </g>
   <g id="PolyCollection_10">
    <path d="M 47.72 253.344582 
L 47.72 253.829824 
L 77.59 222.999141 
L 107.46 211.5139 
L 137.33 226.642021 
L 167.2 169.965087 
L 197.07 134.838589 
L 226.94 166.636187 
L 256.81 95.080888 
L 286.68 116.716955 
L 316.55 96.447414 
L 346.42 96.358215 
L 376.29 120.017312 
L 406.16 121.069858 
L 436.03 45.414981 
L 465.9 91.4166 
L 495.77 81.49769 
L 525.64 86.72831 
L 525.64 85.600836 
L 525.64 85.600836 
L 495.77 80.395193 
L 465.9 90.314102 
L 436.03 44.173333 
L 406.16 119.143163 
L 376.29 118.725713 
L 346.42 94.638462 
L 316.55 94.881082 
L 286.68 115.332589 
L 256.81 93.182737 
L 226.94 164.709492 
L 197.07 133.282961 
L 167.2 167.603102 
L 137.33 226.642021 
L 107.46 211.5139 
L 77.59 222.999141 
L 47.72 253.344582 
z
" clip-path="url(#p9b219c124e)" style="fill: #17becf"/>
   </g>
   <g id="matplotlib.axis_1">
    <g id="xtick_1">
     <g id="line2d_1">
      <defs>
       <path id="m7d68351fcf" d="M 0 0 
L 0 3.5 
" style="stroke: #000000; stroke-width: 0.8"/>
      </defs>
      <g>
       <use xlink:href="#m7d68351fcf" x="77.59" y="390.04" style="stroke: #000000; stroke-width: 0.8"/>
      </g>
     </g>
     <g id="text_1">
      <!-- 2008 -->
      <g transform="translate(64.865 404.638438) scale(0.1 -0.1)">
       <defs>
        <path id="DejaVuSans-32" d="M 1228 531 
L 3431 531 
L 3431 0 
L 469 0 
L 469 531 
Q 828 903 1448 1529 
Q 2069 2156 2228 2338 
Q 2531 2678 2651 2914 
Q 2772 3150 2772 3378 
Q 2772 3750 2511 3984 
Q 2250 4219 1831 4219 
Q 1534 4219 1204 4116 
Q 875 4013 500 3803 
L 500 4441 
Q 881 4594 1212 4672 
Q 1544 4750 1819 4750 
Q 2544 4750 2975 4387 
Q 3406 4025 3406 3419 
Q 3406 3131 3298 2873 
Q 3191 2616 2906 2266 
Q 2828 2175 2409 1742 
Q 1991 1309 1228 531 
z
" transform="scale(0.015625)"/>
        <path id="DejaVuSans-30" d="M 2034 4250 
Q 1547 4250 1301 3770 
Q 1056 3291 1056 2328 
Q 1056 1369 1301 889 
Q 1547 409 2034 409 
Q 2525 409 2770 889 
Q 3016 1369 3016 2328 
Q 3016 3291 2770 3770 
Q 2525 4250 2034 4250 
z
M 2034 4750 
Q 2819 4750 3233 4129 
Q 3647 3509 3647 2328 
Q 3647 1150 3233 529 
Q 2819 -91 2034 -91 
Q 1250 -91 836 529 
Q 422 1150 422 2328 
Q 422 3509 836 4129 
Q 1250 4750 2034 4750 
z
" transform="scale(0.015625)"/>
        <path id="DejaVuSans-38" d="M 2034 2216 
Q 1584 2216 1326 1975 
Q 1069 1734 1069 1313 
Q 1069 891 1326 650 
Q 1584 409 2034 409 
Q 2484 409 2743 651 
Q 3003 894 3003 1313 
Q 3003 1734 2745 1975 
Q 2488 2216 2034 2216 
z
M 1403 2484 
Q 997 2584 770 2862 
Q 544 3141 544 3541 
Q 544 4100 942 4425 
Q 1341 4750 2034 4750 
Q 2731 4750 3128 4425 
Q 3525 4100 3525 3541 
Q 3525 3141 3298 2862 
Q 3072 2584 2669 2484 
Q 3125 2378 3379 2068 
Q 3634 1759 3634 1313 
Q 3634 634 3220 271 
Q 2806 -91 2034 -91 
Q 1263 -91 848 271 
Q 434 634 434 1313 
Q 434 1759 690 2068 
Q 947 2378 1403 2484 
z
M 1172 3481 
Q 1172 3119 1398 2916 
Q 1625 2713 2034 2713 
Q 2441 2713 2670 2916 
Q 2900 3119 2900 3481 
Q 2900 3844 2670 4047 
Q 2441 4250 2034 4250 
Q 1625 4250 1398 4047 
Q 1172 3844 1172 3481 
z
" transform="scale(0.015625)"/>
       </defs>
       <use xlink:href="#DejaVuSans-32"/>
       <use xlink:href="#DejaVuSans-30" x="63.623047"/>
       <use xlink:href="#DejaVuSans-30" x="127.246094"/>
       <use xlink:href="#DejaVuSans-38" x="190.869141"/>
      </g>
     </g>
    </g>
    <g id="xtick_2">
     <g id="line2d_2">
      <g>
       <use xlink:href="#m7d68351fcf" x="137.33" y="390.04" style="stroke: #000000; stroke-width: 0.8"/>
      </g>
     </g>
     <g id="text_2">
      <!-- 2010 -->
      <g transform="translate(124.605 404.638438) scale(0.1 -0.1)">
       <defs>
        <path id="DejaVuSans-31" d="M 794 531 
L 1825 531 
L 1825 4091 
L 703 3866 
L 703 4441 
L 1819 4666 
L 2450 4666 
L 2450 531 
L 3481 531 
L 3481 0 
L 794 0 
L 794 531 
z
" transform="scale(0.015625)"/>
       </defs>
       <use xlink:href="#DejaVuSans-32"/>
       <use xlink:href="#DejaVuSans-30" x="63.623047"/>
       <use xlink:href="#DejaVuSans-31" x="127.246094"/>
       <use xlink:href="#DejaVuSans-30" x="190.869141"/>
      </g>
     </g>
    </g>
    <g id="xtick_3">
     <g id="line2d_3">
      <g>
       <use xlink:href="#m7d68351fcf" x="197.07" y="390.04" style="stroke: #000000; stroke-width: 0.8"/>
      </g>
     </g>
     <g id="text_3">
      <!-- 2012 -->
      <g transform="translate(184.345 404.638438) scale(0.1 -0.1)">
       <use xlink:href="#DejaVuSans-32"/>
       <use xlink:href="#DejaVuSans-30" x="63.623047"/>
       <use xlink:href="#DejaVuSans-31" x="127.246094"/>
       <use xlink:href="#DejaVuSans-32" x="190.869141"/>
      </g>
     </g>
    </g>
    <g id="xtick_4">
     <g id="line2d_4">
      <g>
       <use xlink:href="#m7d68351fcf" x="256.81" y="390.04" style="stroke: #000000; stroke-width: 0.8"/>
      </g>
     </g>
     <g id="text_4">
      <!-- 2014 -->
      <g transform="translate(244.085 404.638438) scale(0.1 -0.1)">
       <defs>
        <path id="DejaVuSans-34" d="M 2419 4116 
L 825 1625 
L 2419 1625 
L 2419 4116 
z
M 2253 4666 
L 3047 4666 
L 3047 1625 
L 3713 1625 
L 3713 1100 
L 3047 1100 
L 3047 0 
L 2419 0 
L 2419 1100 
L 313 1100 
L 313 1709 
L 2253 4666 
z
" transform="scale(0.015625)"/>
       </defs>
       <use xlink:href="#DejaVuSans-32"/>
       <use xlink:href="#DejaVuSans-30" x="63.623047"/>
       <use xlink:href="#DejaVuSans-31" x="127.246094"/>
       <use xlink:href="#DejaVuSans-34" x="190.869141"/>
      </g>
     </g>
    </g>
    <g id="xtick_5">
     <g id="line2d_5">
      <g>
       <use xlink:href="#m7d68351fcf" x="316.55" y="390.04" style="stroke: #000000; stroke-width: 0.8"/>
      </g>
     </g>
     <g id="text_5">
      <!-- 2016 -->
      <g transform="translate(303.825 404.638438) scale(0.1 -0.1)">
       <defs>
        <path id="DejaVuSans-36" d="M 2113 2584 
Q 1688 2584 1439 2293 
Q 1191 2003 1191 1497 
Q 1191 994 1439 701 
Q 1688 409 2113 409 
Q 2538 409 2786 701 
Q 3034 994 3034 1497 
Q 3034 2003 2786 2293 
Q 2538 2584 2113 2584 
z
M 3366 4563 
L 3366 3988 
Q 3128 4100 2886 4159 
Q 2644 4219 2406 4219 
Q 1781 4219 1451 3797 
Q 1122 3375 1075 2522 
Q 1259 2794 1537 2939 
Q 1816 3084 2150 3084 
Q 2853 3084 3261 2657 
Q 3669 2231 3669 1497 
Q 3669 778 3244 343 
Q 2819 -91 2113 -91 
Q 1303 -91 875 529 
Q 447 1150 447 2328 
Q 447 3434 972 4092 
Q 1497 4750 2381 4750 
Q 2619 4750 2861 4703 
Q 3103 4656 3366 4563 
z
" transform="scale(0.015625)"/>
       </defs>
       <use xlink:href="#DejaVuSans-32"/>
       <use xlink:href="#DejaVuSans-30" x="63.623047"/>
       <use xlink:href="#DejaVuSans-31" x="127.246094"/>
       <use xlink:href="#DejaVuSans-36" x="190.869141"/>
      </g>
     </g>
    </g>
    <g id="xtick_6">
     <g id="line2d_6">
      <g>
       <use xlink:href="#m7d68351fcf" x="376.29" y="390.04" style="stroke: #000000; stroke-width: 0.8"/>
      </g>
     </g>
     <g id="text_6">
      <!-- 2018 -->
      <g transform="translate(363.565 404.638438) scale(0.1 -0.1)">
       <use xlink:href="#DejaVuSans-32"/>
       <use xlink:href="#DejaVuSans-30" x="63.623047"/>
       <use xlink:href="#DejaVuSans-31" x="127.246094"/>
       <use xlink:href="#DejaVuSans-38" x="190.869141"/>
      </g>
     </g>
    </g>
    <g id="xtick_7">
     <g id="line2d_7">
      <g>
       <use xlink:href="#m7d68351fcf" x="436.03" y="390.04" style="stroke: #000000; stroke-width: 0.8"/>
      </g>
     </g>
     <g id="text_7">
      <!-- 2020 -->
      <g transform="translate(423.305 404.638438) scale(0.1 -0.1)">
       <use xlink:href="#DejaVuSans-32"/>
       <use xlink:href="#DejaVuSans-30" x="63.623047"/>
       <use xlink:href="#DejaVuSans-32" x="127.246094"/>
       <use xlink:href="#DejaVuSans-30" x="190.869141"/>
      </g>
     </g>
    </g>
    <g id="xtick_8">
     <g id="line2d_8">
      <g>
       <use xlink:href="#m7d68351fcf" x="495.77" y="390.04" style="stroke: #000000; stroke-width: 0.8"/>
      </g>
     </g>
     <g id="text_8">
      <!-- 2022 -->
      <g transform="translate(483.045 404.638438) scale(0.1 -0.1)">
       <use xlink:href="#DejaVuSans-32"/>
       <use xlink:href="#DejaVuSans-30" x="63.623047"/>
       <use xlink:href="#DejaVuSans-32" x="127.246094"/>
       <use xlink:href="#DejaVuSans-32" x="190.869141"/>
      </g>
     </g>
    </g>
    <g id="text_9">
     <!-- Year -->
     <g transform="translate(276.0925 418.316562) scale(0.1 -0.1)">
      <defs>
       <path id="DejaVuSans-59" d="M -13 4666 
L 666 4666 
L 1959 2747 
L 3244 4666 
L 3922 4666 
L 2272 2222 
L 2272 0 
L 1638 0 
L 1638 2222 
L -13 4666 
z
" transform="scale(0.015625)"/>
       <path id="DejaVuSans-65" d="M 3597 1894 
L 3597 1613 
L 953 1613 
Q 991 1019 1311 708 
Q 1631 397 2203 397 
Q 2534 397 2845 478 
Q 3156 559 3463 722 
L 3463 178 
Q 3153 47 2828 -22 
Q 2503 -91 2169 -91 
Q 1331 -91 842 396 
Q 353 884 353 1716 
Q 353 2575 817 3079 
Q 1281 3584 2069 3584 
Q 2775 3584 3186 3129 
Q 3597 2675 3597 1894 
z
M 3022 2063 
Q 3016 2534 2758 2815 
Q 2500 3097 2075 3097 
Q 1594 3097 1305 2825 
Q 1016 2553 972 2059 
L 3022 2063 
z
" transform="scale(0.015625)"/>
       <path id="DejaVuSans-61" d="M 2194 1759 
Q 1497 1759 1228 1600 
Q 959 1441 959 1056 
Q 959 750 1161 570 
Q 1363 391 1709 391 
Q 2188 391 2477 730 
Q 2766 1069 2766 1631 
L 2766 1759 
L 2194 1759 
z
M 3341 1997 
L 3341 0 
L 2766 0 
L 2766 531 
Q 2569 213 2275 61 
Q 1981 -91 1556 -91 
Q 1019 -91 701 211 
Q 384 513 384 1019 
Q 384 1609 779 1909 
Q 1175 2209 1959 2209 
L 2766 2209 
L 2766 2266 
Q 2766 2663 2505 2880 
Q 2244 3097 1772 3097 
Q 1472 3097 1187 3025 
Q 903 2953 641 2809 
L 641 3341 
Q 956 3463 1253 3523 
Q 1550 3584 1831 3584 
Q 2591 3584 2966 3190 
Q 3341 2797 3341 1997 
z
" transform="scale(0.015625)"/>
       <path id="DejaVuSans-72" d="M 2631 2963 
Q 2534 3019 2420 3045 
Q 2306 3072 2169 3072 
Q 1681 3072 1420 2755 
Q 1159 2438 1159 1844 
L 1159 0 
L 581 0 
L 581 3500 
L 1159 3500 
L 1159 2956 
Q 1341 3275 1631 3429 
Q 1922 3584 2338 3584 
Q 2397 3584 2469 3576 
Q 2541 3569 2628 3553 
L 2631 2963 
z
" transform="scale(0.015625)"/>
      </defs>
      <use xlink:href="#DejaVuSans-59"/>
      <use xlink:href="#DejaVuSans-65" x="47.833984"/>
      <use xlink:href="#DejaVuSans-61" x="109.357422"/>
      <use xlink:href="#DejaVuSans-72" x="170.636719"/>
     </g>
    </g>
   </g>
   <g id="matplotlib.axis_2">
    <g id="ytick_1">
     <g id="line2d_9">
      <defs>
       <path id="m5bab4255a7" d="M 0 0 
L -3.5 0 
" style="stroke: #000000; stroke-width: 0.8"/>
      </defs>
      <g>
       <use xlink:href="#m5bab4255a7" x="47.72" y="390.04" style="stroke: #000000; stroke-width: 0.8"/>
      </g>
     </g>
     <g id="text_10">
      <!-- 0.0 -->
      <g transform="translate(24.816875 393.839219) scale(0.1 -0.1)">
       <defs>
        <path id="DejaVuSans-2e" d="M 684 794 
L 1344 794 
L 1344 0 
L 684 0 
L 684 794 
z
" transform="scale(0.015625)"/>
       </defs>
       <use xlink:href="#DejaVuSans-30"/>
       <use xlink:href="#DejaVuSans-2e" x="63.623047"/>
       <use xlink:href="#DejaVuSans-30" x="95.410156"/>
      </g>
     </g>
    </g>
    <g id="ytick_2">
     <g id="line2d_10">
      <g>
       <use xlink:href="#m5bab4255a7" x="47.72" y="318.680939" style="stroke: #000000; stroke-width: 0.8"/>
      </g>
     </g>
     <g id="text_11">
      <!-- 0.2 -->
      <g transform="translate(24.816875 322.480157) scale(0.1 -0.1)">
       <use xlink:href="#DejaVuSans-30"/>
       <use xlink:href="#DejaVuSans-2e" x="63.623047"/>
       <use xlink:href="#DejaVuSans-32" x="95.410156"/>
      </g>
     </g>
    </g>
    <g id="ytick_3">
     <g id="line2d_11">
      <g>
       <use xlink:href="#m5bab4255a7" x="47.72" y="247.321877" style="stroke: #000000; stroke-width: 0.8"/>
      </g>
     </g>
     <g id="text_12">
      <!-- 0.4 -->
      <g transform="translate(24.816875 251.121096) scale(0.1 -0.1)">
       <use xlink:href="#DejaVuSans-30"/>
       <use xlink:href="#DejaVuSans-2e" x="63.623047"/>
       <use xlink:href="#DejaVuSans-34" x="95.410156"/>
      </g>
     </g>
    </g>
    <g id="ytick_4">
     <g id="line2d_12">
      <g>
       <use xlink:href="#m5bab4255a7" x="47.72" y="175.962816" style="stroke: #000000; stroke-width: 0.8"/>
      </g>
     </g>
     <g id="text_13">
      <!-- 0.6 -->
      <g transform="translate(24.816875 179.762035) scale(0.1 -0.1)">
       <use xlink:href="#DejaVuSans-30"/>
       <use xlink:href="#DejaVuSans-2e" x="63.623047"/>
       <use xlink:href="#DejaVuSans-36" x="95.410156"/>
      </g>
     </g>
    </g>
    <g id="ytick_5">
     <g id="line2d_13">
      <g>
       <use xlink:href="#m5bab4255a7" x="47.72" y="104.603754" style="stroke: #000000; stroke-width: 0.8"/>
      </g>
     </g>
     <g id="text_14">
      <!-- 0.8 -->
      <g transform="translate(24.816875 108.402973) scale(0.1 -0.1)">
       <use xlink:href="#DejaVuSans-30"/>
       <use xlink:href="#DejaVuSans-2e" x="63.623047"/>
       <use xlink:href="#DejaVuSans-38" x="95.410156"/>
      </g>
     </g>
    </g>
    <g id="ytick_6">
     <g id="line2d_14">
      <g>
       <use xlink:href="#m5bab4255a7" x="47.72" y="33.244693" style="stroke: #000000; stroke-width: 0.8"/>
      </g>
     </g>
     <g id="text_15">
      <!-- 1.0 -->
      <g transform="translate(24.816875 37.043912) scale(0.1 -0.1)">
       <use xlink:href="#DejaVuSans-31"/>
       <use xlink:href="#DejaVuSans-2e" x="63.623047"/>
       <use xlink:href="#DejaVuSans-30" x="95.410156"/>
      </g>
     </g>
    </g>
    <g id="text_16">
     <!-- Total Quantity (kilograms) -->
     <g transform="translate(18.737187 273.324062) rotate(-90) scale(0.1 -0.1)">
      <defs>
       <path id="DejaVuSans-54" d="M -19 4666 
L 3928 4666 
L 3928 4134 
L 2272 4134 
L 2272 0 
L 1638 0 
L 1638 4134 
L -19 4134 
L -19 4666 
z
" transform="scale(0.015625)"/>
       <path id="DejaVuSans-6f" d="M 1959 3097 
Q 1497 3097 1228 2736 
Q 959 2375 959 1747 
Q 959 1119 1226 758 
Q 1494 397 1959 397 
Q 2419 397 2687 759 
Q 2956 1122 2956 1747 
Q 2956 2369 2687 2733 
Q 2419 3097 1959 3097 
z
M 1959 3584 
Q 2709 3584 3137 3096 
Q 3566 2609 3566 1747 
Q 3566 888 3137 398 
Q 2709 -91 1959 -91 
Q 1206 -91 779 398 
Q 353 888 353 1747 
Q 353 2609 779 3096 
Q 1206 3584 1959 3584 
z
" transform="scale(0.015625)"/>
       <path id="DejaVuSans-74" d="M 1172 4494 
L 1172 3500 
L 2356 3500 
L 2356 3053 
L 1172 3053 
L 1172 1153 
Q 1172 725 1289 603 
Q 1406 481 1766 481 
L 2356 481 
L 2356 0 
L 1766 0 
Q 1100 0 847 248 
Q 594 497 594 1153 
L 594 3053 
L 172 3053 
L 172 3500 
L 594 3500 
L 594 4494 
L 1172 4494 
z
" transform="scale(0.015625)"/>
       <path id="DejaVuSans-6c" d="M 603 4863 
L 1178 4863 
L 1178 0 
L 603 0 
L 603 4863 
z
" transform="scale(0.015625)"/>
       <path id="DejaVuSans-20" transform="scale(0.015625)"/>
       <path id="DejaVuSans-51" d="M 2522 4238 
Q 1834 4238 1429 3725 
Q 1025 3213 1025 2328 
Q 1025 1447 1429 934 
Q 1834 422 2522 422 
Q 3209 422 3611 934 
Q 4013 1447 4013 2328 
Q 4013 3213 3611 3725 
Q 3209 4238 2522 4238 
z
M 3406 84 
L 4238 -825 
L 3475 -825 
L 2784 -78 
Q 2681 -84 2626 -87 
Q 2572 -91 2522 -91 
Q 1538 -91 948 567 
Q 359 1225 359 2328 
Q 359 3434 948 4092 
Q 1538 4750 2522 4750 
Q 3503 4750 4090 4092 
Q 4678 3434 4678 2328 
Q 4678 1516 4351 937 
Q 4025 359 3406 84 
z
" transform="scale(0.015625)"/>
       <path id="DejaVuSans-75" d="M 544 1381 
L 544 3500 
L 1119 3500 
L 1119 1403 
Q 1119 906 1312 657 
Q 1506 409 1894 409 
Q 2359 409 2629 706 
Q 2900 1003 2900 1516 
L 2900 3500 
L 3475 3500 
L 3475 0 
L 2900 0 
L 2900 538 
Q 2691 219 2414 64 
Q 2138 -91 1772 -91 
Q 1169 -91 856 284 
Q 544 659 544 1381 
z
M 1991 3584 
L 1991 3584 
z
" transform="scale(0.015625)"/>
       <path id="DejaVuSans-6e" d="M 3513 2113 
L 3513 0 
L 2938 0 
L 2938 2094 
Q 2938 2591 2744 2837 
Q 2550 3084 2163 3084 
Q 1697 3084 1428 2787 
Q 1159 2491 1159 1978 
L 1159 0 
L 581 0 
L 581 3500 
L 1159 3500 
L 1159 2956 
Q 1366 3272 1645 3428 
Q 1925 3584 2291 3584 
Q 2894 3584 3203 3211 
Q 3513 2838 3513 2113 
z
" transform="scale(0.015625)"/>
       <path id="DejaVuSans-69" d="M 603 3500 
L 1178 3500 
L 1178 0 
L 603 0 
L 603 3500 
z
M 603 4863 
L 1178 4863 
L 1178 4134 
L 603 4134 
L 603 4863 
z
" transform="scale(0.015625)"/>
       <path id="DejaVuSans-79" d="M 2059 -325 
Q 1816 -950 1584 -1140 
Q 1353 -1331 966 -1331 
L 506 -1331 
L 506 -850 
L 844 -850 
Q 1081 -850 1212 -737 
Q 1344 -625 1503 -206 
L 1606 56 
L 191 3500 
L 800 3500 
L 1894 763 
L 2988 3500 
L 3597 3500 
L 2059 -325 
z
" transform="scale(0.015625)"/>
       <path id="DejaVuSans-28" d="M 1984 4856 
Q 1566 4138 1362 3434 
Q 1159 2731 1159 2009 
Q 1159 1288 1364 580 
Q 1569 -128 1984 -844 
L 1484 -844 
Q 1016 -109 783 600 
Q 550 1309 550 2009 
Q 550 2706 781 3412 
Q 1013 4119 1484 4856 
L 1984 4856 
z
" transform="scale(0.015625)"/>
       <path id="DejaVuSans-6b" d="M 581 4863 
L 1159 4863 
L 1159 1991 
L 2875 3500 
L 3609 3500 
L 1753 1863 
L 3688 0 
L 2938 0 
L 1159 1709 
L 1159 0 
L 581 0 
L 581 4863 
z
" transform="scale(0.015625)"/>
       <path id="DejaVuSans-67" d="M 2906 1791 
Q 2906 2416 2648 2759 
Q 2391 3103 1925 3103 
Q 1463 3103 1205 2759 
Q 947 2416 947 1791 
Q 947 1169 1205 825 
Q 1463 481 1925 481 
Q 2391 481 2648 825 
Q 2906 1169 2906 1791 
z
M 3481 434 
Q 3481 -459 3084 -895 
Q 2688 -1331 1869 -1331 
Q 1566 -1331 1297 -1286 
Q 1028 -1241 775 -1147 
L 775 -588 
Q 1028 -725 1275 -790 
Q 1522 -856 1778 -856 
Q 2344 -856 2625 -561 
Q 2906 -266 2906 331 
L 2906 616 
Q 2728 306 2450 153 
Q 2172 0 1784 0 
Q 1141 0 747 490 
Q 353 981 353 1791 
Q 353 2603 747 3093 
Q 1141 3584 1784 3584 
Q 2172 3584 2450 3431 
Q 2728 3278 2906 2969 
L 2906 3500 
L 3481 3500 
L 3481 434 
z
" transform="scale(0.015625)"/>
       <path id="DejaVuSans-6d" d="M 3328 2828 
Q 3544 3216 3844 3400 
Q 4144 3584 4550 3584 
Q 5097 3584 5394 3201 
Q 5691 2819 5691 2113 
L 5691 0 
L 5113 0 
L 5113 2094 
Q 5113 2597 4934 2840 
Q 4756 3084 4391 3084 
Q 3944 3084 3684 2787 
Q 3425 2491 3425 1978 
L 3425 0 
L 2847 0 
L 2847 2094 
Q 2847 2600 2669 2842 
Q 2491 3084 2119 3084 
Q 1678 3084 1418 2786 
Q 1159 2488 1159 1978 
L 1159 0 
L 581 0 
L 581 3500 
L 1159 3500 
L 1159 2956 
Q 1356 3278 1631 3431 
Q 1906 3584 2284 3584 
Q 2666 3584 2933 3390 
Q 3200 3197 3328 2828 
z
" transform="scale(0.015625)"/>
       <path id="DejaVuSans-73" d="M 2834 3397 
L 2834 2853 
Q 2591 2978 2328 3040 
Q 2066 3103 1784 3103 
Q 1356 3103 1142 2972 
Q 928 2841 928 2578 
Q 928 2378 1081 2264 
Q 1234 2150 1697 2047 
L 1894 2003 
Q 2506 1872 2764 1633 
Q 3022 1394 3022 966 
Q 3022 478 2636 193 
Q 2250 -91 1575 -91 
Q 1294 -91 989 -36 
Q 684 19 347 128 
L 347 722 
Q 666 556 975 473 
Q 1284 391 1588 391 
Q 1994 391 2212 530 
Q 2431 669 2431 922 
Q 2431 1156 2273 1281 
Q 2116 1406 1581 1522 
L 1381 1569 
Q 847 1681 609 1914 
Q 372 2147 372 2553 
Q 372 3047 722 3315 
Q 1072 3584 1716 3584 
Q 2034 3584 2315 3537 
Q 2597 3491 2834 3397 
z
" transform="scale(0.015625)"/>
       <path id="DejaVuSans-29" d="M 513 4856 
L 1013 4856 
Q 1481 4119 1714 3412 
Q 1947 2706 1947 2009 
Q 1947 1309 1714 600 
Q 1481 -109 1013 -844 
L 513 -844 
Q 928 -128 1133 580 
Q 1338 1288 1338 2009 
Q 1338 2731 1133 3434 
Q 928 4138 513 4856 
z
" transform="scale(0.015625)"/>
      </defs>
      <use xlink:href="#DejaVuSans-54"/>
      <use xlink:href="#DejaVuSans-6f" x="44.083984"/>
      <use xlink:href="#DejaVuSans-74" x="105.265625"/>
      <use xlink:href="#DejaVuSans-61" x="144.474609"/>
      <use xlink:href="#DejaVuSans-6c" x="205.753906"/>
      <use xlink:href="#DejaVuSans-20" x="233.537109"/>
      <use xlink:href="#DejaVuSans-51" x="265.324219"/>
      <use xlink:href="#DejaVuSans-75" x="344.035156"/>
      <use xlink:href="#DejaVuSans-61" x="407.414062"/>
      <use xlink:href="#DejaVuSans-6e" x="468.693359"/>
      <use xlink:href="#DejaVuSans-74" x="532.072266"/>
      <use xlink:href="#DejaVuSans-69" x="571.28125"/>
      <use xlink:href="#DejaVuSans-74" x="599.064453"/>
      <use xlink:href="#DejaVuSans-79" x="638.273438"/>
      <use xlink:href="#DejaVuSans-20" x="697.453125"/>
      <use xlink:href="#DejaVuSans-28" x="729.240234"/>
      <use xlink:href="#DejaVuSans-6b" x="768.253906"/>
      <use xlink:href="#DejaVuSans-69" x="826.164062"/>
      <use xlink:href="#DejaVuSans-6c" x="853.947266"/>
      <use xlink:href="#DejaVuSans-6f" x="881.730469"/>
      <use xlink:href="#DejaVuSans-67" x="942.912109"/>
      <use xlink:href="#DejaVuSans-72" x="1006.388672"/>
      <use xlink:href="#DejaVuSans-61" x="1047.501953"/>
      <use xlink:href="#DejaVuSans-6d" x="1108.78125"/>
      <use xlink:href="#DejaVuSans-73" x="1206.193359"/>
      <use xlink:href="#DejaVuSans-29" x="1258.292969"/>
     </g>
    </g>
    <g id="text_17">
     <!-- 1e8 -->
     <g transform="translate(47.72 23.88) scale(0.1 -0.1)">
      <use xlink:href="#DejaVuSans-31"/>
      <use xlink:href="#DejaVuSans-65" x="63.623047"/>
      <use xlink:href="#DejaVuSans-38" x="125.146484"/>
     </g>
    </g>
   </g>
   <g id="patch_3">
    <path d="M 47.72 390.04 
L 47.72 26.88 
" style="fill: none; stroke: #000000; stroke-width: 0.8; stroke-linejoin: miter; stroke-linecap: square"/>
   </g>
   <g id="patch_4">
    <path d="M 525.64 390.04 
L 525.64 26.88 
" style="fill: none; stroke: #000000; stroke-width: 0.8; stroke-linejoin: miter; stroke-linecap: square"/>
   </g>
   <g id="patch_5">
    <path d="M 47.72 390.04 
L 525.64 390.04 
" style="fill: none; stroke: #000000; stroke-width: 0.8; stroke-linejoin: miter; stroke-linecap: square"/>
   </g>
   <g id="patch_6">
    <path d="M 47.72 26.88 
L 525.64 26.88 
" style="fill: none; stroke: #000000; stroke-width: 0.8; stroke-linejoin: miter; stroke-linecap: square"/>
   </g>
   <g id="text_18">
    <!-- Total production -->
    <g transform="translate(238.545938 20.88) scale(0.12 -0.12)">
     <defs>
      <path id="DejaVuSans-70" d="M 1159 525 
L 1159 -1331 
L 581 -1331 
L 581 3500 
L 1159 3500 
L 1159 2969 
Q 1341 3281 1617 3432 
Q 1894 3584 2278 3584 
Q 2916 3584 3314 3078 
Q 3713 2572 3713 1747 
Q 3713 922 3314 415 
Q 2916 -91 2278 -91 
Q 1894 -91 1617 61 
Q 1341 213 1159 525 
z
M 3116 1747 
Q 3116 2381 2855 2742 
Q 2594 3103 2138 3103 
Q 1681 3103 1420 2742 
Q 1159 2381 1159 1747 
Q 1159 1113 1420 752 
Q 1681 391 2138 391 
Q 2594 391 2855 752 
Q 3116 1113 3116 1747 
z
" transform="scale(0.015625)"/>
      <path id="DejaVuSans-64" d="M 2906 2969 
L 2906 4863 
L 3481 4863 
L 3481 0 
L 2906 0 
L 2906 525 
Q 2725 213 2448 61 
Q 2172 -91 1784 -91 
Q 1150 -91 751 415 
Q 353 922 353 1747 
Q 353 2572 751 3078 
Q 1150 3584 1784 3584 
Q 2172 3584 2448 3432 
Q 2725 3281 2906 2969 
z
M 947 1747 
Q 947 1113 1208 752 
Q 1469 391 1925 391 
Q 2381 391 2643 752 
Q 2906 1113 2906 1747 
Q 2906 2381 2643 2742 
Q 2381 3103 1925 3103 
Q 1469 3103 1208 2742 
Q 947 2381 947 1747 
z
" transform="scale(0.015625)"/>
      <path id="DejaVuSans-63" d="M 3122 3366 
L 3122 2828 
Q 2878 2963 2633 3030 
Q 2388 3097 2138 3097 
Q 1578 3097 1268 2742 
Q 959 2388 959 1747 
Q 959 1106 1268 751 
Q 1578 397 2138 397 
Q 2388 397 2633 464 
Q 2878 531 3122 666 
L 3122 134 
Q 2881 22 2623 -34 
Q 2366 -91 2075 -91 
Q 1284 -91 818 406 
Q 353 903 353 1747 
Q 353 2603 823 3093 
Q 1294 3584 2113 3584 
Q 2378 3584 2631 3529 
Q 2884 3475 3122 3366 
z
" transform="scale(0.015625)"/>
     </defs>
     <use xlink:href="#DejaVuSans-54"/>
     <use xlink:href="#DejaVuSans-6f" x="44.083984"/>
     <use xlink:href="#DejaVuSans-74" x="105.265625"/>
     <use xlink:href="#DejaVuSans-61" x="144.474609"/>
     <use xlink:href="#DejaVuSans-6c" x="205.753906"/>
     <use xlink:href="#DejaVuSans-20" x="233.537109"/>
     <use xlink:href="#DejaVuSans-70" x="265.324219"/>
     <use xlink:href="#DejaVuSans-72" x="328.800781"/>
     <use xlink:href="#DejaVuSans-6f" x="367.664062"/>
     <use xlink:href="#DejaVuSans-64" x="428.845703"/>
     <use xlink:href="#DejaVuSans-75" x="492.322266"/>
     <use xlink:href="#DejaVuSans-63" x="555.701172"/>
     <use xlink:href="#DejaVuSans-74" x="610.681641"/>
     <use xlink:href="#DejaVuSans-69" x="649.890625"/>
     <use xlink:href="#DejaVuSans-6f" x="677.673828"/>
     <use xlink:href="#DejaVuSans-6e" x="738.855469"/>
    </g>
   </g>
   <g id="legend_1">
    <g id="patch_7">
     <path d="M 532.64 181.66125 
L 706.743125 181.66125 
Q 708.743125 181.66125 708.743125 179.66125 
L 708.743125 33.88 
Q 708.743125 31.88 706.743125 31.88 
L 532.64 31.88 
Q 530.64 31.88 530.64 33.88 
L 530.64 179.66125 
Q 530.64 181.66125 532.64 181.66125 
z
" style="fill: #ffffff; opacity: 0.8; stroke: #cccccc; stroke-linejoin: miter"/>
    </g>
    <g id="patch_8">
     <path d="M 534.64 43.478437 
L 554.64 43.478437 
L 554.64 36.478437 
L 534.64 36.478437 
z
" style="fill: #1f77b4"/>
    </g>
    <g id="text_19">
     <!-- Alberta -->
     <g transform="translate(562.64 43.478437) scale(0.1 -0.1)">
      <defs>
       <path id="DejaVuSans-41" d="M 2188 4044 
L 1331 1722 
L 3047 1722 
L 2188 4044 
z
M 1831 4666 
L 2547 4666 
L 4325 0 
L 3669 0 
L 3244 1197 
L 1141 1197 
L 716 0 
L 50 0 
L 1831 4666 
z
" transform="scale(0.015625)"/>
       <path id="DejaVuSans-62" d="M 3116 1747 
Q 3116 2381 2855 2742 
Q 2594 3103 2138 3103 
Q 1681 3103 1420 2742 
Q 1159 2381 1159 1747 
Q 1159 1113 1420 752 
Q 1681 391 2138 391 
Q 2594 391 2855 752 
Q 3116 1113 3116 1747 
z
M 1159 2969 
Q 1341 3281 1617 3432 
Q 1894 3584 2278 3584 
Q 2916 3584 3314 3078 
Q 3713 2572 3713 1747 
Q 3713 922 3314 415 
Q 2916 -91 2278 -91 
Q 1894 -91 1617 61 
Q 1341 213 1159 525 
L 1159 0 
L 581 0 
L 581 4863 
L 1159 4863 
L 1159 2969 
z
" transform="scale(0.015625)"/>
      </defs>
      <use xlink:href="#DejaVuSans-41"/>
      <use xlink:href="#DejaVuSans-6c" x="68.408203"/>
      <use xlink:href="#DejaVuSans-62" x="96.191406"/>
      <use xlink:href="#DejaVuSans-65" x="159.667969"/>
      <use xlink:href="#DejaVuSans-72" x="221.191406"/>
      <use xlink:href="#DejaVuSans-74" x="262.304688"/>
      <use xlink:href="#DejaVuSans-61" x="301.513672"/>
     </g>
    </g>
    <g id="patch_9">
     <path d="M 534.64 58.156563 
L 554.64 58.156563 
L 554.64 51.156563 
L 534.64 51.156563 
z
" style="fill: #ff7f0e"/>
    </g>
    <g id="text_20">
     <!-- British Columbia -->
     <g transform="translate(562.64 58.156563) scale(0.1 -0.1)">
      <defs>
       <path id="DejaVuSans-42" d="M 1259 2228 
L 1259 519 
L 2272 519 
Q 2781 519 3026 730 
Q 3272 941 3272 1375 
Q 3272 1813 3026 2020 
Q 2781 2228 2272 2228 
L 1259 2228 
z
M 1259 4147 
L 1259 2741 
L 2194 2741 
Q 2656 2741 2882 2914 
Q 3109 3088 3109 3444 
Q 3109 3797 2882 3972 
Q 2656 4147 2194 4147 
L 1259 4147 
z
M 628 4666 
L 2241 4666 
Q 2963 4666 3353 4366 
Q 3744 4066 3744 3513 
Q 3744 3084 3544 2831 
Q 3344 2578 2956 2516 
Q 3422 2416 3680 2098 
Q 3938 1781 3938 1306 
Q 3938 681 3513 340 
Q 3088 0 2303 0 
L 628 0 
L 628 4666 
z
" transform="scale(0.015625)"/>
       <path id="DejaVuSans-68" d="M 3513 2113 
L 3513 0 
L 2938 0 
L 2938 2094 
Q 2938 2591 2744 2837 
Q 2550 3084 2163 3084 
Q 1697 3084 1428 2787 
Q 1159 2491 1159 1978 
L 1159 0 
L 581 0 
L 581 4863 
L 1159 4863 
L 1159 2956 
Q 1366 3272 1645 3428 
Q 1925 3584 2291 3584 
Q 2894 3584 3203 3211 
Q 3513 2838 3513 2113 
z
" transform="scale(0.015625)"/>
       <path id="DejaVuSans-43" d="M 4122 4306 
L 4122 3641 
Q 3803 3938 3442 4084 
Q 3081 4231 2675 4231 
Q 1875 4231 1450 3742 
Q 1025 3253 1025 2328 
Q 1025 1406 1450 917 
Q 1875 428 2675 428 
Q 3081 428 3442 575 
Q 3803 722 4122 1019 
L 4122 359 
Q 3791 134 3420 21 
Q 3050 -91 2638 -91 
Q 1578 -91 968 557 
Q 359 1206 359 2328 
Q 359 3453 968 4101 
Q 1578 4750 2638 4750 
Q 3056 4750 3426 4639 
Q 3797 4528 4122 4306 
z
" transform="scale(0.015625)"/>
      </defs>
      <use xlink:href="#DejaVuSans-42"/>
      <use xlink:href="#DejaVuSans-72" x="68.603516"/>
      <use xlink:href="#DejaVuSans-69" x="109.716797"/>
      <use xlink:href="#DejaVuSans-74" x="137.5"/>
      <use xlink:href="#DejaVuSans-69" x="176.708984"/>
      <use xlink:href="#DejaVuSans-73" x="204.492188"/>
      <use xlink:href="#DejaVuSans-68" x="256.591797"/>
      <use xlink:href="#DejaVuSans-20" x="319.970703"/>
      <use xlink:href="#DejaVuSans-43" x="351.757812"/>
      <use xlink:href="#DejaVuSans-6f" x="421.582031"/>
      <use xlink:href="#DejaVuSans-6c" x="482.763672"/>
      <use xlink:href="#DejaVuSans-75" x="510.546875"/>
      <use xlink:href="#DejaVuSans-6d" x="573.925781"/>
      <use xlink:href="#DejaVuSans-62" x="671.337891"/>
      <use xlink:href="#DejaVuSans-69" x="734.814453"/>
      <use xlink:href="#DejaVuSans-61" x="762.597656"/>
     </g>
    </g>
    <g id="patch_10">
     <path d="M 534.64 72.834687 
L 554.64 72.834687 
L 554.64 65.834687 
L 534.64 65.834687 
z
" style="fill: #2ca02c"/>
    </g>
    <g id="text_21">
     <!-- Manitoba -->
     <g transform="translate(562.64 72.834687) scale(0.1 -0.1)">
      <defs>
       <path id="DejaVuSans-4d" d="M 628 4666 
L 1569 4666 
L 2759 1491 
L 3956 4666 
L 4897 4666 
L 4897 0 
L 4281 0 
L 4281 4097 
L 3078 897 
L 2444 897 
L 1241 4097 
L 1241 0 
L 628 0 
L 628 4666 
z
" transform="scale(0.015625)"/>
      </defs>
      <use xlink:href="#DejaVuSans-4d"/>
      <use xlink:href="#DejaVuSans-61" x="86.279297"/>
      <use xlink:href="#DejaVuSans-6e" x="147.558594"/>
      <use xlink:href="#DejaVuSans-69" x="210.9375"/>
      <use xlink:href="#DejaVuSans-74" x="238.720703"/>
      <use xlink:href="#DejaVuSans-6f" x="277.929688"/>
      <use xlink:href="#DejaVuSans-62" x="339.111328"/>
      <use xlink:href="#DejaVuSans-61" x="402.587891"/>
     </g>
    </g>
    <g id="patch_11">
     <path d="M 534.64 87.512812 
L 554.64 87.512812 
L 554.64 80.512812 
L 534.64 80.512812 
z
" style="fill: #d62728"/>
    </g>
    <g id="text_22">
     <!-- New Brunswick -->
     <g transform="translate(562.64 87.512812) scale(0.1 -0.1)">
      <defs>
       <path id="DejaVuSans-4e" d="M 628 4666 
L 1478 4666 
L 3547 763 
L 3547 4666 
L 4159 4666 
L 4159 0 
L 3309 0 
L 1241 3903 
L 1241 0 
L 628 0 
L 628 4666 
z
" transform="scale(0.015625)"/>
       <path id="DejaVuSans-77" d="M 269 3500 
L 844 3500 
L 1563 769 
L 2278 3500 
L 2956 3500 
L 3675 769 
L 4391 3500 
L 4966 3500 
L 4050 0 
L 3372 0 
L 2619 2869 
L 1863 0 
L 1184 0 
L 269 3500 
z
" transform="scale(0.015625)"/>
      </defs>
      <use xlink:href="#DejaVuSans-4e"/>
      <use xlink:href="#DejaVuSans-65" x="74.804688"/>
      <use xlink:href="#DejaVuSans-77" x="136.328125"/>
      <use xlink:href="#DejaVuSans-20" x="218.115234"/>
      <use xlink:href="#DejaVuSans-42" x="249.902344"/>
      <use xlink:href="#DejaVuSans-72" x="318.505859"/>
      <use xlink:href="#DejaVuSans-75" x="359.619141"/>
      <use xlink:href="#DejaVuSans-6e" x="422.998047"/>
      <use xlink:href="#DejaVuSans-73" x="486.376953"/>
      <use xlink:href="#DejaVuSans-77" x="538.476562"/>
      <use xlink:href="#DejaVuSans-69" x="620.263672"/>
      <use xlink:href="#DejaVuSans-63" x="648.046875"/>
      <use xlink:href="#DejaVuSans-6b" x="703.027344"/>
     </g>
    </g>
    <g id="patch_12">
     <path d="M 534.64 102.190938 
L 554.64 102.190938 
L 554.64 95.190938 
L 534.64 95.190938 
z
" style="fill: #9467bd"/>
    </g>
    <g id="text_23">
     <!-- Newfoundland and Labrador -->
     <g transform="translate(562.64 102.190938) scale(0.1 -0.1)">
      <defs>
       <path id="DejaVuSans-66" d="M 2375 4863 
L 2375 4384 
L 1825 4384 
Q 1516 4384 1395 4259 
Q 1275 4134 1275 3809 
L 1275 3500 
L 2222 3500 
L 2222 3053 
L 1275 3053 
L 1275 0 
L 697 0 
L 697 3053 
L 147 3053 
L 147 3500 
L 697 3500 
L 697 3744 
Q 697 4328 969 4595 
Q 1241 4863 1831 4863 
L 2375 4863 
z
" transform="scale(0.015625)"/>
       <path id="DejaVuSans-4c" d="M 628 4666 
L 1259 4666 
L 1259 531 
L 3531 531 
L 3531 0 
L 628 0 
L 628 4666 
z
" transform="scale(0.015625)"/>
      </defs>
      <use xlink:href="#DejaVuSans-4e"/>
      <use xlink:href="#DejaVuSans-65" x="74.804688"/>
      <use xlink:href="#DejaVuSans-77" x="136.328125"/>
      <use xlink:href="#DejaVuSans-66" x="218.115234"/>
      <use xlink:href="#DejaVuSans-6f" x="253.320312"/>
      <use xlink:href="#DejaVuSans-75" x="314.501953"/>
      <use xlink:href="#DejaVuSans-6e" x="377.880859"/>
      <use xlink:href="#DejaVuSans-64" x="441.259766"/>
      <use xlink:href="#DejaVuSans-6c" x="504.736328"/>
      <use xlink:href="#DejaVuSans-61" x="532.519531"/>
      <use xlink:href="#DejaVuSans-6e" x="593.798828"/>
      <use xlink:href="#DejaVuSans-64" x="657.177734"/>
      <use xlink:href="#DejaVuSans-20" x="720.654297"/>
      <use xlink:href="#DejaVuSans-61" x="752.441406"/>
      <use xlink:href="#DejaVuSans-6e" x="813.720703"/>
      <use xlink:href="#DejaVuSans-64" x="877.099609"/>
      <use xlink:href="#DejaVuSans-20" x="940.576172"/>
      <use xlink:href="#DejaVuSans-4c" x="972.363281"/>
      <use xlink:href="#DejaVuSans-61" x="1028.076172"/>
      <use xlink:href="#DejaVuSans-62" x="1089.355469"/>
      <use xlink:href="#DejaVuSans-72" x="1152.832031"/>
      <use xlink:href="#DejaVuSans-61" x="1193.945312"/>
      <use xlink:href="#DejaVuSans-64" x="1255.224609"/>
      <use xlink:href="#DejaVuSans-6f" x="1318.701172"/>
      <use xlink:href="#DejaVuSans-72" x="1379.882812"/>
     </g>
    </g>
    <g id="patch_13">
     <path d="M 534.64 116.869062 
L 554.64 116.869062 
L 554.64 109.869062 
L 534.64 109.869062 
z
" style="fill: #8c564b"/>
    </g>
    <g id="text_24">
     <!-- Nova Scotia -->
     <g transform="translate(562.64 116.869062) scale(0.1 -0.1)">
      <defs>
       <path id="DejaVuSans-76" d="M 191 3500 
L 800 3500 
L 1894 563 
L 2988 3500 
L 3597 3500 
L 2284 0 
L 1503 0 
L 191 3500 
z
" transform="scale(0.015625)"/>
       <path id="DejaVuSans-53" d="M 3425 4513 
L 3425 3897 
Q 3066 4069 2747 4153 
Q 2428 4238 2131 4238 
Q 1616 4238 1336 4038 
Q 1056 3838 1056 3469 
Q 1056 3159 1242 3001 
Q 1428 2844 1947 2747 
L 2328 2669 
Q 3034 2534 3370 2195 
Q 3706 1856 3706 1288 
Q 3706 609 3251 259 
Q 2797 -91 1919 -91 
Q 1588 -91 1214 -16 
Q 841 59 441 206 
L 441 856 
Q 825 641 1194 531 
Q 1563 422 1919 422 
Q 2459 422 2753 634 
Q 3047 847 3047 1241 
Q 3047 1584 2836 1778 
Q 2625 1972 2144 2069 
L 1759 2144 
Q 1053 2284 737 2584 
Q 422 2884 422 3419 
Q 422 4038 858 4394 
Q 1294 4750 2059 4750 
Q 2388 4750 2728 4690 
Q 3069 4631 3425 4513 
z
" transform="scale(0.015625)"/>
      </defs>
      <use xlink:href="#DejaVuSans-4e"/>
      <use xlink:href="#DejaVuSans-6f" x="74.804688"/>
      <use xlink:href="#DejaVuSans-76" x="135.986328"/>
      <use xlink:href="#DejaVuSans-61" x="195.166016"/>
      <use xlink:href="#DejaVuSans-20" x="256.445312"/>
      <use xlink:href="#DejaVuSans-53" x="288.232422"/>
      <use xlink:href="#DejaVuSans-63" x="351.708984"/>
      <use xlink:href="#DejaVuSans-6f" x="406.689453"/>
      <use xlink:href="#DejaVuSans-74" x="467.871094"/>
      <use xlink:href="#DejaVuSans-69" x="507.080078"/>
      <use xlink:href="#DejaVuSans-61" x="534.863281"/>
     </g>
    </g>
    <g id="patch_14">
     <path d="M 534.64 131.547188 
L 554.64 131.547188 
L 554.64 124.547188 
L 534.64 124.547188 
z
" style="fill: #e377c2"/>
    </g>
    <g id="text_25">
     <!-- Ontario -->
     <g transform="translate(562.64 131.547188) scale(0.1 -0.1)">
      <defs>
       <path id="DejaVuSans-4f" d="M 2522 4238 
Q 1834 4238 1429 3725 
Q 1025 3213 1025 2328 
Q 1025 1447 1429 934 
Q 1834 422 2522 422 
Q 3209 422 3611 934 
Q 4013 1447 4013 2328 
Q 4013 3213 3611 3725 
Q 3209 4238 2522 4238 
z
M 2522 4750 
Q 3503 4750 4090 4092 
Q 4678 3434 4678 2328 
Q 4678 1225 4090 567 
Q 3503 -91 2522 -91 
Q 1538 -91 948 565 
Q 359 1222 359 2328 
Q 359 3434 948 4092 
Q 1538 4750 2522 4750 
z
" transform="scale(0.015625)"/>
      </defs>
      <use xlink:href="#DejaVuSans-4f"/>
      <use xlink:href="#DejaVuSans-6e" x="78.710938"/>
      <use xlink:href="#DejaVuSans-74" x="142.089844"/>
      <use xlink:href="#DejaVuSans-61" x="181.298828"/>
      <use xlink:href="#DejaVuSans-72" x="242.578125"/>
      <use xlink:href="#DejaVuSans-69" x="283.691406"/>
      <use xlink:href="#DejaVuSans-6f" x="311.474609"/>
     </g>
    </g>
    <g id="patch_15">
     <path d="M 534.64 146.225312 
L 554.64 146.225312 
L 554.64 139.225312 
L 534.64 139.225312 
z
" style="fill: #7f7f7f"/>
    </g>
    <g id="text_26">
     <!-- Prince Edward Island -->
     <g transform="translate(562.64 146.225312) scale(0.1 -0.1)">
      <defs>
       <path id="DejaVuSans-50" d="M 1259 4147 
L 1259 2394 
L 2053 2394 
Q 2494 2394 2734 2622 
Q 2975 2850 2975 3272 
Q 2975 3691 2734 3919 
Q 2494 4147 2053 4147 
L 1259 4147 
z
M 628 4666 
L 2053 4666 
Q 2838 4666 3239 4311 
Q 3641 3956 3641 3272 
Q 3641 2581 3239 2228 
Q 2838 1875 2053 1875 
L 1259 1875 
L 1259 0 
L 628 0 
L 628 4666 
z
" transform="scale(0.015625)"/>
       <path id="DejaVuSans-45" d="M 628 4666 
L 3578 4666 
L 3578 4134 
L 1259 4134 
L 1259 2753 
L 3481 2753 
L 3481 2222 
L 1259 2222 
L 1259 531 
L 3634 531 
L 3634 0 
L 628 0 
L 628 4666 
z
" transform="scale(0.015625)"/>
       <path id="DejaVuSans-49" d="M 628 4666 
L 1259 4666 
L 1259 0 
L 628 0 
L 628 4666 
z
" transform="scale(0.015625)"/>
      </defs>
      <use xlink:href="#DejaVuSans-50"/>
      <use xlink:href="#DejaVuSans-72" x="58.552734"/>
      <use xlink:href="#DejaVuSans-69" x="99.666016"/>
      <use xlink:href="#DejaVuSans-6e" x="127.449219"/>
      <use xlink:href="#DejaVuSans-63" x="190.828125"/>
      <use xlink:href="#DejaVuSans-65" x="245.808594"/>
      <use xlink:href="#DejaVuSans-20" x="307.332031"/>
      <use xlink:href="#DejaVuSans-45" x="339.119141"/>
      <use xlink:href="#DejaVuSans-64" x="402.302734"/>
      <use xlink:href="#DejaVuSans-77" x="465.779297"/>
      <use xlink:href="#DejaVuSans-61" x="547.566406"/>
      <use xlink:href="#DejaVuSans-72" x="608.845703"/>
      <use xlink:href="#DejaVuSans-64" x="648.208984"/>
      <use xlink:href="#DejaVuSans-20" x="711.685547"/>
      <use xlink:href="#DejaVuSans-49" x="743.472656"/>
      <use xlink:href="#DejaVuSans-73" x="772.964844"/>
      <use xlink:href="#DejaVuSans-6c" x="825.064453"/>
      <use xlink:href="#DejaVuSans-61" x="852.847656"/>
      <use xlink:href="#DejaVuSans-6e" x="914.126953"/>
      <use xlink:href="#DejaVuSans-64" x="977.505859"/>
     </g>
    </g>
    <g id="patch_16">
     <path d="M 534.64 160.903437 
L 554.64 160.903437 
L 554.64 153.903437 
L 534.64 153.903437 
z
" style="fill: #bcbd22"/>
    </g>
    <g id="text_27">
     <!-- Quebec -->
     <g transform="translate(562.64 160.903437) scale(0.1 -0.1)">
      <use xlink:href="#DejaVuSans-51"/>
      <use xlink:href="#DejaVuSans-75" x="78.710938"/>
      <use xlink:href="#DejaVuSans-65" x="142.089844"/>
      <use xlink:href="#DejaVuSans-62" x="203.613281"/>
      <use xlink:href="#DejaVuSans-65" x="267.089844"/>
      <use xlink:href="#DejaVuSans-63" x="328.613281"/>
     </g>
    </g>
    <g id="patch_17">
     <path d="M 534.64 175.581562 
L 554.64 175.581562 
L 554.64 168.581562 
L 534.64 168.581562 
z
" style="fill: #17becf"/>
    </g>
    <g id="text_28">
     <!-- Saskatchewan -->
     <g transform="translate(562.64 175.581562) scale(0.1 -0.1)">
      <use xlink:href="#DejaVuSans-53"/>
      <use xlink:href="#DejaVuSans-61" x="63.476562"/>
      <use xlink:href="#DejaVuSans-73" x="124.755859"/>
      <use xlink:href="#DejaVuSans-6b" x="176.855469"/>
      <use xlink:href="#DejaVuSans-61" x="233.015625"/>
      <use xlink:href="#DejaVuSans-74" x="294.294922"/>
      <use xlink:href="#DejaVuSans-63" x="333.503906"/>
      <use xlink:href="#DejaVuSans-68" x="388.484375"/>
      <use xlink:href="#DejaVuSans-65" x="451.863281"/>
      <use xlink:href="#DejaVuSans-77" x="513.386719"/>
      <use xlink:href="#DejaVuSans-61" x="595.173828"/>
      <use xlink:href="#DejaVuSans-6e" x="656.453125"/>
     </g>
    </g>
   </g>
  </g>
 </g>
 <defs>
  <clipPath id="p9b219c124e">
   <rect x="47.72" y="26.88" width="477.92" height="363.16"/>
  </clipPath>
 </defs>
</svg>
